<svg width="248" height="45" viewBox="0 0 248 45" fill="none" xmlns="http://www.w3.org/2000/svg">
<path fill-rule="evenodd" clip-rule="evenodd" d="M40.5604 0.86737C35.5995 6.45182 26.6162 16.5637 26.6162 16.5637L7.92379 6.62067L17.9067 26.3673C17.9067 26.3673 4.70905 41.2236 3.59883 42.4731C2.53593 42.1038 1.58097 39.4707 1.36297 38.4608C-0.219941 31.131 -0.317245 21.3392 0.523926 13.1577C0.888682 9.60802 1.15294 5.48963 2.81242 3.3905C5.4359 0.0718891 13.2999 0.236453 18.7569 0.0831458C25.9834 -0.119477 33.7443 0.0139968 40.5604 0.86737Z" fill="#FF0013"/>
<path fill-rule="evenodd" clip-rule="evenodd" d="M190.63 5.39551L189.488 9.62539L193.913 9.70258L192.276 15.9319H187.887C187.887 15.9319 185.811 22.9191 184.988 26.315C186.516 26.7845 188.395 26.5953 190.06 26.2308C189.466 28.4698 188.959 30.4226 188.421 32.4676C185.737 32.9511 182.317 33.2165 179.543 32.6322C176.674 32.0281 174.763 30.7459 174.763 27.4433C174.763 25.9724 175.286 24.561 175.635 23.0339C176.321 20.4255 177.502 15.9319 177.502 15.9319H174.307L175.899 9.87304L183.996 5.39551H190.63Z" fill="#FF0013"/>
<path fill-rule="evenodd" clip-rule="evenodd" d="M215.445 11.0164C215.6 10.4273 215.834 9.54442 215.834 9.54442H224.025L218.019 32.3861H209.832C209.832 32.3861 210.018 31.6705 210.109 31.3247C202.212 35.2239 190.003 32.2918 191.472 22.2341C192.568 14.729 199.183 9.30803 207.263 8.92905C210.343 8.78485 213.484 9.34126 215.445 11.0164ZM201.818 25.23C205.906 27.6647 213.214 24.5058 212.908 19.1577C212.844 18.0229 212.098 16.9391 211.23 16.4663C207.179 14.2578 201.147 17.2248 200.331 21.4911C200.041 23.0097 200.989 24.7358 201.818 25.23Z" fill="#FF0013"/>
<path fill-rule="evenodd" clip-rule="evenodd" d="M174.004 16.5392C170.997 16.9439 167.983 17.3304 164.773 17.6928C164.258 14.9879 159.209 14.4991 157.068 15.9238C162.014 18.9224 171.172 17.6531 172.097 23.9226C172.274 25.126 171.94 26.4399 171.487 27.3066C169.928 30.2859 165.864 32.6263 161.063 32.8927C152.109 33.3896 148.961 31.7756 145.757 28.1509C145.103 27.029 143.793 24.6146 143.793 24.6146C143.793 24.6146 149.54 23.846 152.566 23.6149C153.289 26.873 159.106 27.7966 161.722 25.6915C157.321 22.9122 148.565 23.7747 147.303 18.1543C147.153 17.4826 147.119 16.5505 147.303 15.6933C148.358 10.7811 155.183 9.08989 161.036 9.07917C167.667 9.06684 173.148 10.8202 174.004 16.5392Z" fill="#FF0013"/>
<path fill-rule="evenodd" clip-rule="evenodd" d="M248 10.3118C246.68 12.4929 245.436 14.5443 244.11 16.6183C238.778 15.4202 236.214 17.8533 234.637 21.4292C233.223 24.6508 231.322 32.3842 231.322 32.3842H221.575L227.555 9.6192H237.304C237.304 9.6192 237.158 10.2662 237.003 10.7476C239.399 9.05582 244.993 8.54551 248 10.3118Z" fill="#FF0013"/>
<path fill-rule="evenodd" clip-rule="evenodd" d="M48.2727 34.2061C48.2881 38.2178 46.9668 41.2812 44.565 42.8561C42.4371 44.2514 39.2202 44.9091 35.1133 44.6894C35.486 41.8521 36.3277 36.63 36.3277 36.63C36.3277 36.63 44.4278 34.986 48.2727 34.2061Z" fill="#004E9A"/>
<path fill-rule="evenodd" clip-rule="evenodd" d="M48.2727 34.2061C48.2881 38.2178 46.9668 41.2812 44.565 42.8561C42.4371 44.2514 39.2202 44.9091 35.1133 44.6894C35.486 41.8521 36.3277 36.63 36.3277 36.63C36.3277 36.63 44.4278 34.986 48.2727 34.2061Z" fill="url(#paint0_linear)"/>
<path fill-rule="evenodd" clip-rule="evenodd" d="M27.3189 45.0001C19.3575 44.925 10.4933 45.2043 4.56738 43.0773C8.51908 42.1376 24.3221 39.0693 24.3221 39.0693C24.3221 39.0693 26.348 43.0607 27.3189 45.0001Z" fill="#004E9A"/>
<path fill-rule="evenodd" clip-rule="evenodd" d="M27.3189 45.0001C19.3575 44.925 10.4933 45.2043 4.56738 43.0773C8.51908 42.1376 24.3221 39.0693 24.3221 39.0693C24.3221 39.0693 26.348 43.0607 27.3189 45.0001Z" fill="url(#paint1_linear)"/>
<path fill-rule="evenodd" clip-rule="evenodd" d="M38.4263 22.8442C38.4263 22.8442 40.6962 7.93051 41.7176 1.05957C45.2434 1.57685 46.8656 2.83279 47.6356 5.46206C49.4397 11.6233 49.1483 21.1803 48.9542 28.4442C45.7299 26.7294 38.4263 22.8442 38.4263 22.8442Z" fill="#004E9A"/>
<path fill-rule="evenodd" clip-rule="evenodd" d="M38.4263 22.8442C38.4263 22.8442 40.6962 7.93051 41.7176 1.05957C45.2434 1.57685 46.8656 2.83279 47.6356 5.46206C49.4397 11.6233 49.1483 21.1803 48.9542 28.4442C45.7299 26.7294 38.4263 22.8442 38.4263 22.8442Z" fill="url(#paint2_linear)"/>
<path fill-rule="evenodd" clip-rule="evenodd" d="M108.278 1.7832H117.881L109.837 32.3867H100.236L108.278 1.7832Z" fill="#004E9A"/>
<path fill-rule="evenodd" clip-rule="evenodd" d="M108.278 1.7832H117.881L109.837 32.3867H100.236L108.278 1.7832Z" fill="url(#paint3_linear)"/>
<path fill-rule="evenodd" clip-rule="evenodd" d="M101.141 23.6925C95.0123 23.6925 88.8843 23.6925 82.7558 23.6925C83.2216 28.244 90.6565 27.0465 91.7577 23.923C95.1128 24.4118 97.9224 24.8353 101.038 25.2068C98.8109 29.7829 93.8548 32.9595 86.7989 32.9981C81.6078 33.0265 76.1275 31.048 74.0586 27.307C72.9069 25.2239 72.0253 21.3923 73.2955 18.539C74.2425 16.6516 75.6989 14.5787 77.1866 13.0789C80.6805 10.0878 84.5253 9.11275 89.4692 9.07952C98.4536 9.01948 104.269 15.4198 101.141 23.6925ZM83.9761 18.3085C86.7479 18.3085 89.5197 18.3085 92.2915 18.3085C92.089 13.7908 84.5881 15.014 83.9761 18.3085Z" fill="#004E9A"/>
<path fill-rule="evenodd" clip-rule="evenodd" d="M101.141 23.6925C95.0123 23.6925 88.8843 23.6925 82.7558 23.6925C83.2216 28.244 90.6565 27.0465 91.7577 23.923C95.1128 24.4118 97.9224 24.8353 101.038 25.2068C98.8109 29.7829 93.8548 32.9595 86.7989 32.9981C81.6078 33.0265 76.1275 31.048 74.0586 27.307C72.9069 25.2239 72.0253 21.3923 73.2955 18.539C74.2425 16.6516 75.6989 14.5787 77.1866 13.0789C80.6805 10.0878 84.5253 9.11275 89.4692 9.07952C98.4536 9.01948 104.269 15.4198 101.141 23.6925ZM83.9761 18.3085C86.7479 18.3085 89.5197 18.3085 92.2915 18.3085C92.089 13.7908 84.5881 15.014 83.9761 18.3085Z" fill="url(#paint4_linear)"/>
<path fill-rule="evenodd" clip-rule="evenodd" d="M142.945 23.6925C136.817 23.6925 130.689 23.6925 124.56 23.6925C125.078 28.2917 132.448 26.9714 133.639 23.923C136.341 24.2569 141.27 25.0706 141.27 25.0706C141.27 25.0706 141.761 26.0639 142.033 26.6423C137.269 36.1495 113.341 35.4558 114.566 21.1543C115.233 13.385 122.848 9.13581 131.273 9.07953C139.841 9.02217 146.012 14.7438 142.945 23.6925ZM125.705 18.3085C128.477 18.257 131.452 18.4109 134.096 18.2319C133.772 13.7388 126.395 15.1164 125.705 18.3085Z" fill="#004E9A"/>
<path fill-rule="evenodd" clip-rule="evenodd" d="M142.945 23.6925C136.817 23.6925 130.689 23.6925 124.56 23.6925C125.078 28.2917 132.448 26.9714 133.639 23.923C136.341 24.2569 141.27 25.0706 141.27 25.0706C141.27 25.0706 141.761 26.0639 142.033 26.6423C137.269 36.1495 113.341 35.4558 114.566 21.1543C115.233 13.385 122.848 9.13581 131.273 9.07953C139.841 9.02217 146.012 14.7438 142.945 23.6925ZM125.705 18.3085C128.477 18.257 131.452 18.4109 134.096 18.2319C133.772 13.7388 126.395 15.1164 125.705 18.3085Z" fill="url(#paint5_linear)"/>
<path fill-rule="evenodd" clip-rule="evenodd" d="M73.7227 5.31152L72.6125 9.54141L76.9582 9.69525L75.9182 13.6496L74.1773 15.9246H70.9318C70.9318 15.9246 69.0724 22.5779 68.1839 26.3671C69.5929 27.049 71.3779 26.6432 73.0772 26.3269C72.554 28.3178 72.0021 30.4196 71.4656 32.4603C66.1272 33.4112 59.4771 33.3866 58.3711 28.7755C57.7474 26.1742 58.6853 23.5862 59.4552 20.6551C59.8711 19.0732 60.6984 15.9246 60.6984 15.9246H56.9604L58.4966 10.0796L67.1938 5.31152H73.7227Z" fill="#004E9A"/>
<path fill-rule="evenodd" clip-rule="evenodd" d="M73.7227 5.31152L72.6125 9.54141L76.9582 9.69525L75.9182 13.6496L74.1773 15.9246H70.9318C70.9318 15.9246 69.0724 22.5779 68.1839 26.3671C69.5929 27.049 71.3779 26.6432 73.0772 26.3269C72.554 28.3178 72.0021 30.4196 71.4656 32.4603C66.1272 33.4112 59.4771 33.3866 58.3711 28.7755C57.7474 26.1742 58.6853 23.5862 59.4552 20.6551C59.8711 19.0732 60.6984 15.9246 60.6984 15.9246H56.9604L58.4966 10.0796L67.1938 5.31152H73.7227Z" fill="url(#paint6_linear)"/>
<path d="M56.9531 42.7332L60.2902 36.4492H65.1623C67.2779 36.4492 68.6955 36.7623 69.4149 37.3884C70.1343 38.0145 70.2757 38.7392 69.8392 39.5615C69.3405 40.5006 68.3706 41.2639 66.9297 41.8514C65.4887 42.4395 63.867 42.7332 62.065 42.7332H56.9531ZM61.7088 41.0693H62.5882C63.2279 41.0693 63.8611 40.9712 64.4657 40.6614C65.1107 40.3301 65.9832 39.5009 65.7136 38.5719C65.603 38.1903 65.142 38.0396 64.404 38.0396H63.3986L61.7088 41.0693Z" fill="#004E9A"/>
<path d="M77.1167 36.4492L73.7797 42.7332H69.9136L73.2506 36.4492H77.1167Z" fill="#004E9A"/>
<path d="M87.3122 42.7332H83.0266L82.463 40.3301H81.2438L79.9677 42.7332H76.1016L79.4386 36.4492H86.0175C87.4691 36.4492 88.5064 36.6191 89.1291 36.9579C89.7512 37.2972 89.9155 37.7443 89.6204 38.3002C89.4279 38.662 89.1105 38.982 88.6676 39.2597C88.2246 39.5379 87.4983 39.7823 86.4875 39.994L87.3122 42.7332ZM81.9579 38.9858H83.6094C84.0948 38.9858 84.6978 38.7295 84.8472 38.5333C85.1216 38.1726 85.0774 37.7845 84.2187 37.7845H82.5959L81.9579 38.9858Z" fill="#004E9A"/>
<path d="M171.119 42.7332H166.833L166.27 40.3301H165.051L163.774 42.7332H159.909L163.245 36.4492H169.824C171.276 36.4492 172.313 36.6191 172.935 36.9579C173.559 37.2972 173.722 37.7443 173.426 38.3002C173.235 38.662 172.918 38.982 172.474 39.2597C172.031 39.5379 171.304 39.7823 170.295 39.994L171.119 42.7332ZM165.764 38.9858H167.415C167.901 38.9858 168.504 38.7295 168.654 38.5333C168.928 38.1726 168.885 37.7845 168.025 37.7845H166.403L165.764 38.9858Z" fill="#004E9A"/>
<path d="M99.5432 41.2323L98.7462 42.7332H89.2705L92.6075 36.4492H102.083L101.313 37.8992H95.6293L95.1454 38.811H99.7405L98.9998 40.2058H94.4047L93.8597 41.2323H99.5432Z" fill="#004E9A"/>
<path d="M108.608 40.3328L112.086 40.4384C111.511 41.2087 110.626 41.7994 109.433 42.2111C108.239 42.6222 106.932 42.8275 105.512 42.8275C103.801 42.8275 102.57 42.5456 101.818 41.9806C101.067 41.4162 100.954 40.6362 101.482 39.6419C102.006 38.6572 102.926 37.8622 104.244 37.2576C105.561 36.6529 107.112 36.3506 108.896 36.3506C110.562 36.3506 111.722 36.5805 112.372 37.041C113.023 37.5015 113.204 38.112 112.917 38.8732L109.258 38.9697C109.481 38.5494 109.481 38.2455 109.258 38.0584C109.034 37.8713 108.704 37.7775 108.267 37.7775C107.049 37.7775 106.116 38.3886 105.467 39.6097C105.104 40.2942 105.015 40.759 105.202 41.005C105.388 41.2505 105.767 41.3727 106.34 41.3727C107.36 41.3727 108.117 41.0265 108.608 40.3328Z" fill="#004E9A"/>
<path d="M120.122 37.955L117.584 42.7332H113.922L116.459 37.955H113.848L114.647 36.4492H123.533L122.734 37.955H120.122Z" fill="#004E9A"/>
<path d="M148.74 36.4492L145.403 42.7332H141.813L143.865 38.8684L139.484 42.7332H137.03L136.66 38.8684L134.607 42.7332H131.71L135.046 36.4492H140.099L140.314 39.3969L143.67 36.4492H148.74Z" fill="#004E9A"/>
<path d="M154.669 42.7332L154.614 41.495H151.242L149.827 42.7332H146.688L153.913 36.4492H158.001L158.615 42.7332H154.669ZM152.627 40.1232H154.665L154.613 38.3002L152.627 40.1232Z" fill="#004E9A"/>
<path d="M184.428 42.7332H180.197L179.281 40.3585L177.485 41.2832L176.714 42.7332H173.07L176.407 36.4492H180.052L178.672 39.0474L183.524 36.4492H187L182.598 38.7494L184.428 42.7332Z" fill="#004E9A"/>
<path d="M195.865 41.2323L195.067 42.7332H185.592L188.929 36.4492H198.405L197.634 37.8992H191.951L191.466 38.811H196.062L195.321 40.2058H190.726L190.18 41.2323H195.865Z" fill="#004E9A"/>
<path d="M204.651 37.955L202.113 42.7332H198.451L200.988 37.955H198.377L199.176 36.4492H208.062L207.261 37.955H204.651Z" fill="#004E9A"/>
<path d="M213.372 36.4492L210.034 42.7332H206.168L209.506 36.4492H213.372Z" fill="#004E9A"/>
<path d="M223.124 42.7332H219.978L218.003 39.9571C217.749 39.6006 217.532 39.168 217.353 38.6593C217.34 39.064 217.26 39.4076 217.109 39.6901L215.493 42.7332H212.355L215.693 36.4492H219.347L221.059 38.751C221.401 39.2082 221.63 39.6102 221.747 39.9571C221.835 39.4199 222.028 38.8705 222.326 38.3093L223.315 36.4492H226.462L223.124 42.7332Z" fill="#004E9A"/>
<path d="M237.824 39.2093C237.824 39.2093 237.469 41.8391 234.085 42.5059C233.271 42.6662 231.417 42.8275 230.406 42.8275C228.781 42.8275 227.597 42.5445 226.853 41.9785C226.107 41.4119 225.991 40.6459 226.505 39.6788C227.004 38.7397 227.928 37.9501 229.28 37.3101C230.631 36.6706 232.307 36.3506 234.307 36.3506C236.902 36.3506 238.249 37.8418 238.148 38.5419L234.394 38.7258C234.394 38.1083 234.169 37.8788 233.319 37.8788C232.19 37.8788 231.281 38.3468 230.642 39.5497C230.256 40.2776 230.204 40.7568 230.487 40.9884C230.771 41.2205 231.201 41.3363 231.779 41.3363C232.246 41.3363 232.682 41.2655 233.086 41.1245C233.49 40.983 233.761 40.7901 233.897 40.5446H231.812L232.521 39.2093H237.824Z" fill="#004E9A"/>
<defs>
<linearGradient id="paint0_linear" x1="41.693" y1="34.2061" x2="41.693" y2="44.7309" gradientUnits="userSpaceOnUse">
<stop stop-color="#0295DB"/>
<stop offset="0.786458" stop-color="#0075BA" stop-opacity="0.614583"/>
</linearGradient>
<linearGradient id="paint1_linear" x1="15.9431" y1="39.0693" x2="15.9431" y2="45.0001" gradientUnits="userSpaceOnUse">
<stop stop-color="#0295DB"/>
<stop offset="0.786458" stop-color="#0075BA" stop-opacity="0.614583"/>
</linearGradient>
<linearGradient id="paint2_linear" x1="43.763" y1="1.05957" x2="43.763" y2="28.4442" gradientUnits="userSpaceOnUse">
<stop stop-color="#0295DB"/>
<stop offset="0.786458" stop-color="#0075BA" stop-opacity="0.614583"/>
</linearGradient>
<linearGradient id="paint3_linear" x1="109.059" y1="1.7832" x2="109.059" y2="32.3867" gradientUnits="userSpaceOnUse">
<stop stop-color="#0295DB"/>
<stop offset="0.786458" stop-color="#0075BA" stop-opacity="0.614583"/>
</linearGradient>
<linearGradient id="paint4_linear" x1="87.3337" y1="9.0791" x2="87.3337" y2="32.9984" gradientUnits="userSpaceOnUse">
<stop stop-color="#0295DB"/>
<stop offset="0.786458" stop-color="#0075BA" stop-opacity="0.614583"/>
</linearGradient>
<linearGradient id="paint5_linear" x1="129.132" y1="9.0791" x2="129.132" y2="32.978" gradientUnits="userSpaceOnUse">
<stop stop-color="#0295DB"/>
<stop offset="0.786458" stop-color="#0075BA" stop-opacity="0.614583"/>
</linearGradient>
<linearGradient id="paint6_linear" x1="66.9593" y1="5.31152" x2="66.9593" y2="32.9558" gradientUnits="userSpaceOnUse">
<stop stop-color="#0295DB"/>
<stop offset="0.786458" stop-color="#0075BA" stop-opacity="0.614583"/>
</linearGradient>
</defs>
</svg>
